<?xml version="1.0" standalone="no"?> 
<!DOCTYPE svg PUBLIC "-//W3C//DTD SVG 20010904//EN" "http://www.w3.org/TR/2001/REC-SVG-20010904/DTD/svg10.dtd"> <svg version="1.0" xmlns="http://www.w3.org/2000/svg" width="500.000000pt" height="500.000000pt" viewBox="0 0 500.000000 500.000000" preserveAspectRatio="xMidYMid meet">
<g transform="translate(0.000000,500.000000) scale(0.100000,-0.100000)" fill="#000000" stroke="none">
<path d="M2425 4017 c-58 -33 -87 -88 -82 -160 9 -146 171 -213 282 -116 41 37 59 86 53 150 -12 121 -145 187 -253 126z" fill="#ba04ef"/> 
<path d="M2259 3737 c-58 -78 -98 -149 -143 -254 l-35 -82 35 -11 c20 -7 37 -10 39 -8 1 1 15 32 30 68 34 84 86 177 129 234 l34 44 -16 36 c-9 19 -19 35 -22 35 -3 0 -26 -28 -51 -62z"/>
<path d="M2682 3756 c-20 -34 -20 -36 -3 -57 l18 -22 31 23 32 24 -22 25 c-13 14 -26 30 -29 34 -3 5 -16 -8 -27 -27z"/> 
<path d="M2772 3660 c-22 -9 -42 -46 -42 -76 0 -24 47 -64 75 -64 14 0 37 11 50 25 14 13 25 36 25 50 0 30 -41 75 -67 74 -10 0 -28 -4 -41 -9z"/>
<path d="M2849 3467 l-26 -12 38 -100 c21 -55 38 -105 39 -110 0 -6 -39 -24 -87 -39 -49 -16 -135 -49 -193 -74 -58 -25 -109 -45 -115 -45 -5 0 -53 19 -106 42 -53 22 -103 41 -112 41 -8 0 -20 -14 -26 -30 -11 -33 -15 -31 102 -75 26 -10 47 -20 47 -24 0 -3 -41 -28 -92 -56 -50 -27 -139 -82 -197 -122 -58 -39 -107 -70 -109 -69 -3 3 36 233 43 257 7 20 -64 45 -70 26 -8 -22 -34 -182 -45 -266 l-10 -84 -121 -116 c-67 -64 -125 -117 -128 -119 -6 -2 -83 87 -127 146 -9 12 -15 11 -43 -6 l-32 -20 47 -58 c26 -33 59 -72 75 -89 l28 -30 -66 -80 c-124 -150 -228 -328 -248 -422 -7 -33 -6 -33 32 -33 36 0 39 2 51 43 32 101 132 264 235 382 l44 49 129 -116 129 -116 18 -130 c10 -71 27 -166 37 -211 11 -45 20 -88 20 -96 0 -9 -24 -18 -76 -26 l-76 -13 6 -34 c3 -19 7 -36 9 -38 2 -3 36 2 76 11 40 8 76 15 80 15 5 0 21 -35 36 -77 55 -152 166 -355 222 -406 19 -17 20 -16 32 21 13 37 12 40 -32 103 -50 72 -125 225 -157 319 -12 34 -20 63 -18 65 2 1 41 15 88 30 47 15 132 47 188 71 57 24 110 44 117 44 7 0 42 -13 77 -28 34 -16 118 -49 185 -73 68 -24 123 -49 123 -56 0 -7 -11 -43 -25 -80 -13 -37 -23 -67 -22 -68 1 0 16 -7 33 -16 l31 -16 26 71 c15 39 27 77 27 84 0 16 11 15 121 -8 103 -23 356 -38 381 -24 13 8 13 13 1 43 -14 33 -15 33 -62 27 -55 -7 -211 7 -326 30 -44 9 -81 17 -82 18 -2 1 8 52 22 112 13 60 31 161 39 224 l15 114 58 50 c32 28 88 79 124 113 60 58 88 75 89 56 1 -5 16 -25 35 -46 l34 -39 30 23 31 22 -46 54 -46 53 75 93 c126 155 198 278 236 401 11 37 21 70 21 72 0 2 -17 4 -38 4 -38 0 -39 -1 -56 -57 -37 -116 -117 -252 -227 -381 l-62 -74 -56 54 c-97 94 -172 163 -186 170 -7 4 -16 34 -19 65 -10 82 -44 278 -60 345 l-13 58 36 10 c20 5 55 12 78 16 45 7 46 10 28 70 -3 9 -25 7 -81 -6 l-76 -18 -10 26 c-58 156 -74 196 -83 198 -5 1 -22 -3 -36 -9z m88 -367 c14 -60 53 -281 53 -298 0 -6 -55 26 -122 71 -68 45 -156 100 -195 122 -40 22 -73 43 -73 46 0 12 286 119 310 116 9 -1 19 -23 27 -57z m-284 -179 c65 -36 168 -102 230 -146 89 -64 113 -86 118 -110 9 -40 10 -366 2 -433 -6 -52 -6 -53 -87 -111 -95 -69 -289 -186 -365 -221 l-53 -25 -86 45 c-94 50 -328 201 -382 248 l-35 30 0 242 0 242 30 24 c130 106 457 298 490 288 11 -3 73 -36 138 -73z m608 -474 c13 -22 7 -30 -103 -129 l-78 -70 0 187 0 187 86 -78 c47 -43 90 -86 95 -97z m-1343 -99 l-3 -93 -93 90 -93 90 93 90 93 90 3 -87 c1 -48 1 -129 0 -180z m205 -337 c56 -37 144 -92 196 -122 l95 -53 -53 -23 c-65 -29 -249 -93 -265 -93 -7 0 -18 24 -25 53 -18 78 -59 307 -54 307 2 0 50 -31 106 -69z m862 32 c-36 -211 -61 -323 -73 -323 -30 1 -312 107 -312 118 0 4 44 31 98 60 53 30 138 82 187 117 50 35 94 63 98 64 4 1 5 -16 2 -36z"/> 
<path d="M2394 2714 c-105 -38 -184 -155 -184 -274 0 -164 126 -290 290 -290 115 0 215 62 265 165 34 69 37 170 7 238 -28 63 -88 126 -147 153 -59 28 -165 31 -231 8z m172 -140 c98 -47 111 -192 22 -255 -44 -32 -98 -35 -150 -10 -54 26 -82 70 -82 131 0 112 109 182 210 134z"/> 
<path d="M1317 3366 c-50 -18 -76 -42 -98 -91 -24 -52 -24 -96 0 -143 35 -68 78 -94 155 -94 101 0 175 85 164 187 -13 108 -122 178 -221 141z" fill="#00c9f7"/> 
<path d="M3603 3369 c-74 -22 -133 -119 -119 -194 15 -76 98 -145 174 -145 71 0 155 68 168 135 24 130 -98 242 -223 204z" fill="#fd3905"/> 
<path d="M3241 3327 c-51 -26 -49 -105 3 -128 83 -38 147 84 66 126 -35 18 -38 18 -69 2z"/> 
<path d="M1565 3279 c10 -47 11 -48 49 -42 26 4 206 -10 259 -20 6 -1 12 14 14 34 5 47 -1 49 -186 56 l-143 6 7 -34z"/> 
<path d="M3410 3260 c0 -32 4 -40 18 -40 12 0 21 12 29 40 10 40 10 40 -18 40 -27 0 -29 -3 -29 -40z"/> 
<path d="M1306 2973 c5 -25 34 -114 39 -121 3 -4 65 29 65 35 0 4 -8 30 -17 60 -16 52 -17 53 -55 53 -37 0 -38 -1 -32 -27z"/> 
<path d="M1403 2810 c-25 -10 -43 -39 -43 -70 0 -29 44 -70 75 -70 33 0 75 41 75 73 0 51 -59 87 -107 67z"/> 
<path d="M3500 2263 c-51 -19 -68 -85 -30 -123 61 -61 159 32 103 98 -20 23 -50 33 -73 25z"/> 
<path d="M3587 2081 c-17 -10 -26 -22 -23 -31 3 -8 16 -44 29 -80 24 -62 26 -65 61 -68 31 -3 36 0 36 18 0 23 -57 168 -68 173 -4 2 -20 -3 -35 -12z"/> 
<path d="M1321 1860 c-76 -18 -131 -86 -131 -162 0 -63 22 -109 68 -145 46 -34 129 -39 183 -9 131 70 110 268 -34 311 -28 8 -51 15 -51 14 -1 -1 -16 -5 -35 -9z"  fill="#fb3904"/> 
<path d="M3570 1841 c-99 -52 -117 -186 -36 -267 120 -120 323 -12 286 153 -25 110 -151 167 -250 114z" fill="#02e53c"/> 
<path d="M1685 1645 c-46 -46 -19 -118 44 -118 66 0 98 76 51 123 -27 27 -66 25 -95 -5z"/> 
<path d="M1551 1619 c-16 -45 -14 -49 17 -49 25 0 27 4 29 40 1 32 -2 40 -17 40 -11 0 -22 -12 -29 -31z"/> 
<path d="M2760 1393 c-15 -19 -19 -35 -15 -53 14 -62 90 -79 128 -28 54 73 -56 153 -113 81z"/> 
<path d="M2696 1233 c-15 -21 -16 -29 -5 -56 19 -50 23 -50 57 -3 l32 44 -33 19 -33 20 -18 -24z"/> 
<path d="M2432 1234 c-77 -39 -113 -144 -79 -225 47 -113 216 -132 292 -33 54 71 39 187 -32 241 -45 34 -131 42 -181 17z" fill="#fa0177"/> 
</g> 
</svg>